<svg width="30" height="24" fill="none" xmlns="http://www.w3.org/2000/svg"><path d="M29.942 2.858a12.303 12.303 0 0 1-3.476.954 6.1 6.1 0 0 0 2.662-3.35 12.504 12.504 0 0 1-3.848 1.456A6.053 6.053 0 0 0 14.81 6.05c0 .48.056.942.156 1.383C9.933 7.195 5.473 4.78 2.49 1.126a5.932 5.932 0 0 0-.82 3.045 6.054 6.054 0 0 0 2.692 5.04 6.034 6.034 0 0 1-2.74-.759v.075a6.057 6.057 0 0 0 4.854 5.94 6.145 6.145 0 0 1-2.722.104 6.074 6.074 0 0 0 5.665 4.204 12.14 12.14 0 0 1-7.508 2.59c-.48 0-.958-.029-1.44-.083A17.219 17.219 0 0 0 9.77 24c11.139 0 17.223-9.223 17.223-17.207 0-.258 0-.517-.019-.775A12.223 12.223 0 0 0 30 2.883l-.058-.025Z" fill="#fff"/></svg>