<svg width="25" height="18" viewBox="0 0 25 18" fill="none" xmlns="http://www.w3.org/2000/svg">
<path d="M24.3416 8.45576C23.2571 3.55301 21.6251 0.93623 19.2041 0.221447C18.6952 0.0721754 18.1674 -0.00239905 17.637 5.88275e-05C16.9361 5.88275e-05 16.3256 0.170829 15.6798 0.351826C14.9016 0.570146 14.0176 0.818122 12.7287 0.818122C11.4397 0.818122 10.5552 0.570658 9.77545 0.352337C9.12918 0.170829 8.51921 5.88275e-05 7.82028 5.88275e-05C7.27188 -0.0018427 6.72589 0.0724943 6.19796 0.220936C3.78979 0.932651 2.15877 3.54841 1.05848 8.45269C-0.124645 13.7302 0.457714 17.0623 2.69154 17.8354C2.99774 17.9433 3.31991 17.999 3.64458 18C5.17487 18 6.40196 16.7254 7.24048 15.6818C8.1879 14.5007 9.29688 13.9015 12.7287 13.9015C15.7938 13.9015 17.0623 14.3172 18.158 15.6818C18.8467 16.5398 19.4976 17.14 20.147 17.5179C21.0105 18.0199 21.8736 18.1314 22.7116 17.8435C24.0317 17.3931 24.7884 16.2023 24.9613 14.3034C25.0927 12.8472 24.8902 10.9345 24.3416 8.45576ZM10.2745 8.18069H8.63834V9.81681C8.63834 10.0338 8.55215 10.2419 8.39874 10.3953C8.24532 10.5487 8.03724 10.6349 7.82028 10.6349C7.60332 10.6349 7.39524 10.5487 7.24182 10.3953C7.08841 10.2419 7.00222 10.0338 7.00222 9.81681V8.18069H5.36609C5.14913 8.18069 4.94105 8.0945 4.78763 7.94108C4.63422 7.78767 4.54803 7.57959 4.54803 7.36263C4.54803 7.14566 4.63422 6.93758 4.78763 6.78417C4.94105 6.63075 5.14913 6.54456 5.36609 6.54456H7.00222V4.90844C7.00222 4.69147 7.08841 4.4834 7.24182 4.32998C7.39524 4.17656 7.60332 4.09037 7.82028 4.09037C8.03724 4.09037 8.24532 4.17656 8.39874 4.32998C8.55215 4.4834 8.63834 4.69147 8.63834 4.90844V6.54456H10.2745C10.4914 6.54456 10.6995 6.63075 10.8529 6.78417C11.0063 6.93758 11.0925 7.14566 11.0925 7.36263C11.0925 7.57959 11.0063 7.78767 10.8529 7.94108C10.6995 8.0945 10.4914 8.18069 10.2745 8.18069ZM14.5693 8.3852C14.3671 8.3852 14.1693 8.32523 14.0012 8.21287C13.833 8.10051 13.702 7.9408 13.6246 7.75395C13.5472 7.5671 13.5269 7.36149 13.5664 7.16313C13.6058 6.96477 13.7032 6.78256 13.8462 6.63955C13.9892 6.49654 14.1714 6.39915 14.3698 6.3597C14.5682 6.32024 14.7738 6.34049 14.9606 6.41789C15.1475 6.49528 15.3072 6.62635 15.4195 6.79451C15.5319 6.96267 15.5919 7.16038 15.5919 7.36263C15.5919 7.63383 15.4841 7.89393 15.2924 8.0857C15.1006 8.27747 14.8405 8.3852 14.5693 8.3852ZM16.819 10.6349C16.6166 10.6349 16.4188 10.5748 16.2506 10.4624C16.0824 10.3499 15.9513 10.19 15.874 10.003C15.7967 9.81603 15.7766 9.61029 15.8162 9.41186C15.8559 9.21343 15.9535 9.03123 16.0968 8.88832C16.2401 8.74541 16.4225 8.64822 16.6211 8.60906C16.8196 8.56989 17.0253 8.59051 17.2121 8.66829C17.3989 8.74608 17.5584 8.87755 17.6705 9.04605C17.7825 9.21454 17.8421 9.4125 17.8416 9.61485C17.8409 9.88562 17.7328 10.1451 17.5411 10.3363C17.3494 10.5275 17.0897 10.6349 16.819 10.6349ZM16.819 6.13553C16.6167 6.13553 16.419 6.07556 16.2509 5.9632C16.0827 5.85083 15.9516 5.69113 15.8742 5.50428C15.7968 5.31742 15.7766 5.11182 15.816 4.91346C15.8555 4.7151 15.9529 4.53289 16.0959 4.38988C16.2389 4.24687 16.4211 4.14948 16.6195 4.11002C16.8178 4.07057 17.0234 4.09082 17.2103 4.16821C17.3971 4.24561 17.5569 4.37668 17.6692 4.54484C17.7816 4.713 17.8416 4.91071 17.8416 5.11295C17.8416 5.38416 17.7338 5.64425 17.542 5.83602C17.3503 6.0278 17.0902 6.13553 16.819 6.13553ZM19.0686 8.3852C18.8664 8.3852 18.6687 8.32523 18.5005 8.21287C18.3324 8.10051 18.2013 7.9408 18.1239 7.75395C18.0465 7.5671 18.0263 7.36149 18.0657 7.16313C18.1052 6.96477 18.2026 6.78256 18.3456 6.63955C18.4886 6.49654 18.6708 6.39915 18.8692 6.3597C19.0675 6.32024 19.2731 6.34049 19.46 6.41789C19.6468 6.49528 19.8065 6.62635 19.9189 6.79451C20.0313 6.96267 20.0912 7.16038 20.0912 7.36263C20.0912 7.63383 19.9835 7.89393 19.7917 8.0857C19.5999 8.27747 19.3399 8.3852 19.0686 8.3852Z" fill="white"/>
</svg>
