<svg width="30" height="24" viewBox="0 0 30 24" fill="none" xmlns="http://www.w3.org/2000/svg">
<path d="M29.9422 2.85805C28.8534 3.33665 27.6907 3.66269 26.4665 3.81155C27.7141 3.05982 28.6737 1.87502 29.1277 0.461373C27.9577 1.1442 26.6609 1.64126 25.2805 1.91808C24.1781 0.738197 22.607 0 20.8624 0C17.5196 0 14.8092 2.71041 14.8092 6.04952C14.8092 6.52935 14.8646 6.99072 14.9654 7.43241C9.9334 7.19496 5.47346 4.77859 2.48868 1.12575C1.96333 2.01405 1.66929 3.04629 1.66929 4.17081C1.66929 6.27467 2.73967 8.12385 4.36124 9.21023C3.36837 9.17824 2.43455 8.90511 1.62007 8.45235V8.5274C1.62007 11.4617 3.70302 13.9089 6.47495 14.4662C5.96682 14.6028 5.4304 14.6766 4.88044 14.6766C4.49412 14.6766 4.12379 14.6397 3.75346 14.5708C4.5298 16.9736 6.76161 18.7256 9.41789 18.7748C7.35094 20.3976 4.73157 21.3646 1.91043 21.3646C1.4306 21.3646 0.952005 21.3363 0.470947 21.2822C3.16413 22.9973 6.33715 24 9.76853 24C20.9079 24 26.9919 14.7775 26.9919 6.79264C26.9919 6.5355 26.9919 6.2759 26.9734 6.01753C28.1558 5.16984 29.188 4.09822 30 2.88266L29.9422 2.85805Z" fill="white"/>
</svg>
