<svg width="25" height="24" viewBox="0 0 25 24" fill="none" xmlns="http://www.w3.org/2000/svg">
<path d="M1.43388 22.6663C0.697523 21.9299 0.697523 20.7361 1.43388 19.9997L20.1 1.3335C20.8364 0.597141 22.0303 0.597139 22.7666 1.3335V1.3335C23.503 2.06986 23.503 3.26374 22.7666 4.0001L4.10047 22.6663C3.36411 23.4027 2.17024 23.4027 1.43388 22.6663V22.6663Z" fill="white"/>
<path d="M22.7659 22.6667C22.0296 23.4031 20.8357 23.4031 20.0993 22.6667L1.43319 4.00049C0.696827 3.26413 0.696826 2.07025 1.43318 1.33389V1.33389C2.16954 0.597531 3.36342 0.59753 4.09978 1.33389L22.7659 20.0001C23.5023 20.7365 23.5023 21.9303 22.7659 22.6667V22.6667Z" fill="white"/>
</svg>
