<svg width="24" height="25" viewBox="0 0 24 25" fill="none" xmlns="http://www.w3.org/2000/svg">
<path d="M1.33378 23.1662C0.597425 22.4299 0.597425 21.236 1.33378 20.4996L19.9999 1.83343C20.7363 1.09706 21.9302 1.09706 22.6665 1.83342V1.83342C23.4029 2.56979 23.4029 3.76366 22.6665 4.50003L4.00037 23.1662C3.26402 23.9026 2.07014 23.9026 1.33378 23.1662V23.1662Z" fill="black"/>
<path d="M22.6658 23.1666C21.9295 23.903 20.7356 23.903 19.9992 23.1666L1.33309 4.50042C0.596729 3.76406 0.596728 2.57018 1.33309 1.83382V1.83382C2.06945 1.09745 3.26332 1.09745 3.99968 1.83382L22.6658 20.5C23.4022 21.2364 23.4022 22.4303 22.6658 23.1666V23.1666Z" fill="black"/>
</svg>
