<svg width="23" height="24" viewBox="0 0 23 24" fill="none" xmlns="http://www.w3.org/2000/svg">
<path d="M19.7173 0C21.1233 0 22.2573 1.137 22.3243 2.475V24L19.6473 21.727L18.1773 20.389L16.5733 18.991L17.2433 21.196H3.20528C1.80328 21.196 0.665283 20.131 0.665283 18.72V2.48C0.665283 1.142 1.80528 0.003 3.21028 0.003H19.7103L19.7173 0ZM13.5993 5.683H13.5693L13.3673 5.883C15.4403 6.483 16.4433 7.42 16.4433 7.42C15.1073 6.752 13.9033 6.418 12.6993 6.283C11.8293 6.148 10.9593 6.219 10.2243 6.283H10.0243C9.55428 6.283 8.55428 6.483 7.21428 7.018C6.74728 7.221 6.47928 7.354 6.47928 7.354C6.47928 7.354 7.48128 6.352 9.68928 5.817L9.55428 5.682C9.55428 5.682 7.88228 5.618 6.07728 6.952C6.07728 6.952 4.27228 10.096 4.27228 13.972C4.27228 13.972 5.27228 15.712 8.01528 15.778C8.01528 15.778 8.41528 15.245 8.82028 14.776C7.28028 14.308 6.68028 13.372 6.68028 13.372C6.68028 13.372 6.81428 13.438 7.01528 13.572H7.07528C7.10528 13.572 7.11928 13.587 7.13528 13.602V13.608C7.15128 13.624 7.16528 13.638 7.19528 13.638C7.52528 13.774 7.85528 13.908 8.12528 14.038C8.59128 14.24 9.19028 14.441 9.92528 14.574C10.8553 14.709 11.9213 14.774 13.1353 14.574C13.7353 14.439 14.3353 14.307 14.9353 14.039C15.3253 13.839 15.8053 13.639 16.3323 13.302C16.3323 13.302 15.7323 14.238 14.1273 14.706C14.4573 15.172 14.9223 15.706 14.9223 15.706C17.6663 15.646 18.7323 13.906 18.7923 13.98C18.7923 10.11 16.9773 6.96 16.9773 6.96C15.3423 5.746 13.8123 5.7 13.5423 5.7L13.5983 5.68L13.5993 5.683ZM13.7673 10.096C14.4703 10.096 15.0373 10.696 15.0373 11.431C15.0373 12.171 14.4673 12.771 13.7673 12.771C13.0673 12.771 12.4973 12.171 12.4973 11.437C12.4993 10.697 13.0703 10.099 13.7673 10.099V10.096ZM9.22428 10.096C9.92428 10.096 10.4903 10.696 10.4903 11.431C10.4903 12.171 9.92028 12.771 9.22028 12.771C8.52028 12.771 7.95028 12.171 7.95028 11.437C7.95028 10.697 8.52028 10.099 9.22028 10.099L9.22428 10.096Z" fill="white"/>
</svg>
